<?xml version="1.0" standalone="no"?>
<!DOCTYPE svg PUBLIC "-//W3C//DTD SVG 20010904//EN"
 "http://www.w3.org/TR/2001/REC-SVG-20010904/DTD/svg10.dtd">
<svg version="1.0" xmlns="http://www.w3.org/2000/svg"
 width="525.000000pt" height="528.000000pt" viewBox="0 0 525.000000 528.000000"
 preserveAspectRatio="xMidYMid meet">

<g transform="translate(0.000000,528.000000) scale(0.100000,-0.100000)"
fill="#2F928B" stroke="none">
<path d="M2270 5264 c-757 -117 -1423 -532 -1885 -1175 -169 -235 -295 -586
-356 -989 -17 -116 -22 -192 -23 -380 -1 -382 47 -653 180 -1010 300 -805
1003 -1428 1844 -1634 286 -69 618 -94 901 -66 402 40 968 290 1349 597 332
267 643 664 772 985 82 204 143 439 180 693 8 57 13 191 13 365 0 298 -15 441
-71 671 -38 159 -122 402 -174 503 -108 214 -302 468 -507 666 -220 213 -423
355 -698 490 -252 124 -472 197 -738 246 -269 50 -605 66 -787 38z m585 -360
c298 -29 584 -109 830 -231 362 -182 696 -492 924 -861 69 -112 96 -170 146
-314 151 -432 178 -912 78 -1368 -57 -263 -145 -481 -269 -665 -361 -539 -906
-920 -1511 -1054 -253 -57 -620 -43 -925 35 -482 122 -928 415 -1241 816 -257
329 -431 777 -478 1226 -15 143 -6 461 16 602 47 302 151 604 270 785 280 424
709 770 1141 919 295 101 684 143 1019 110z"/>
<path d="M2600 4643 c-8 -3 -27 -17 -42 -31 l-28 -26 0 -834 0 -835 -59 -53
c-32 -30 -76 -80 -97 -111 l-38 -58 -1 -127 0 -128 -312 -313 c-342 -342 -336
-334 -293 -405 24 -39 81 -66 123 -58 20 4 119 94 349 318 l320 313 116 0
c101 0 123 3 158 22 57 31 119 104 145 172 27 73 23 185 -10 254 -26 53 -88
119 -129 136 -28 12 -29 15 -36 103 -3 50 -6 425 -7 832 0 791 -1 799 -49 823
-25 13 -83 16 -110 6z"/>
</g>
</svg>
